<svg width="950" height="913" viewBox="0 0 950 913" fill="none" xmlns="http://www.w3.org/2000/svg">
<path d="M474.081 353.326C419.718 353.326 375.483 309.058 375.483 254.654V98.6715C375.483 44.2678 419.718 0 474.081 0C528.444 0 572.679 44.2678 572.679 98.6715V136.368H546.85V98.6715C546.85 58.5258 514.197 25.8477 474.081 25.8477C433.965 25.8477 401.312 58.5258 401.312 98.6715V254.674C401.312 294.82 433.965 327.498 474.081 327.498C514.197 327.498 546.85 294.82 546.85 254.674V176.673H572.679V254.674C572.679 309.078 528.444 353.346 474.081 353.346V353.326Z" fill="#F5BC00"/>
<path d="M559.765 176.972H486.219V202.82H559.765V176.972Z" fill="#F5BC00"/>
<path d="M451.178 83.6573H390.686V109.505H451.178V83.6573Z" fill="#F5BC00"/>
<path d="M451.178 130.315H390.686V156.162H451.178V130.315Z" fill="#F5BC00"/>
<path d="M451.178 223.609H390.686V249.456H451.178V223.609Z" fill="#F5BC00"/>
<path d="M451.178 176.952H390.686V202.8H451.178V176.952Z" fill="#F5BC00"/>
<path d="M597.272 176.672V252.981C597.272 285.758 584.418 316.684 561.077 340.023C537.736 363.381 506.833 376.245 474.1 376.245C441.366 376.245 410.444 363.381 387.103 340.023C363.762 316.664 350.907 285.738 350.907 252.981V176.672H324.124V252.981C324.124 335.741 391.401 403.069 474.1 403.069C556.798 403.069 624.056 335.741 624.056 252.981V176.672H597.272Z" fill="#F5BC00"/>
<path d="M486.993 389.668H461.165V481.669H486.993V389.668Z" fill="#F5BC00"/>
<path d="M577.173 463.805H370.963V489.653H577.173V463.805Z" fill="#F5BC00"/>
<path d="M55.8356 663.507C44.7918 663.507 35.0813 661.197 26.704 656.597C18.3266 651.997 11.78 645.446 7.06402 636.943C2.34804 628.44 0 618.403 0 606.814C0 595.224 2.32814 585.705 6.98442 577.262C11.6407 568.819 18.3664 562.247 27.2014 557.528C36.0165 552.808 46.7021 550.458 59.2581 550.458C64.9889 550.458 70.3218 551.115 75.2367 552.41C80.1517 553.704 84.8478 555.596 89.2852 558.085L89.9418 580.826H88.3101L79.2165 563.94C77.8037 561.231 76.5103 559.28 75.3163 558.085C74.1224 556.89 72.6101 555.974 70.7794 555.317C69.0483 554.78 67.4564 554.381 65.9839 554.102C64.5313 553.844 62.6011 553.704 60.2133 553.704C53.5074 553.704 47.5776 555.496 42.4438 559.061C37.3099 562.625 33.3302 568.321 30.5046 576.107C27.6989 583.913 26.2861 594.129 26.2861 606.814C26.2861 619.498 27.6193 629.615 30.2658 637.52C32.9123 645.426 36.6732 651.201 41.5484 654.825C46.4235 658.449 52.0349 660.261 58.4224 660.261C59.3974 660.261 60.3327 660.182 61.2679 660.022C62.1832 659.863 63.0787 659.664 63.9542 659.445C66.0038 659.126 67.3569 658.25 68.0135 656.856C68.6702 655.442 68.9886 653.77 68.9886 651.818V619.658C68.9886 615.436 66.8196 612.827 62.5016 611.852L55.0396 609.9V608.267H100.806V609.9L98.5381 610.557C94.419 611.852 92.3695 614.56 92.3695 618.682V653.929C86.7382 657.075 81.0273 659.445 75.2367 661.078C69.4462 662.711 62.9792 663.507 55.8356 663.507Z" fill="white"/>
<path d="M100.15 660.58V658.947L104.21 657.494C106.379 656.637 108.05 655.582 109.244 654.327C110.438 653.093 111.413 651.32 112.169 649.05L145.599 553.047H159.389L192.341 649.687C193.196 652.077 194.171 653.889 195.266 655.124C196.34 656.378 198.032 657.434 200.3 658.29L202.25 658.947V660.58H161.02V658.947L163.448 658.131C165.716 657.275 167.109 656.04 167.587 654.487C168.064 652.913 167.985 651.042 167.348 648.891L159.727 625.493H123.69L115.89 648.393C115.134 650.783 114.895 652.675 115.154 654.068C115.432 655.482 116.686 656.617 118.974 657.474L122.536 658.927V660.56H100.13L100.15 660.58ZM124.825 622.247H158.752L142.355 571.726L124.825 622.247Z" fill="white"/>
<path d="M207.264 660.58V658.947L210.507 657.653C212.676 656.896 214.109 655.86 214.806 654.566C215.502 653.272 215.86 651.539 215.86 649.369V564.577C215.86 562.406 215.542 560.674 214.885 559.379C214.229 558.085 212.776 557.05 210.507 556.293L207.264 554.998V553.366H248.972V554.998L245.728 556.293C243.559 557.05 242.126 558.085 241.43 559.379C240.734 560.674 240.375 562.406 240.375 564.577V649.369C240.375 651.539 240.734 653.232 241.43 654.486C242.126 655.741 243.559 656.796 245.728 657.653L248.972 658.947V660.58H207.264Z" fill="white"/>
<path d="M258.224 660.58V658.947L263.577 657.314C265.527 656.776 266.94 655.721 267.795 654.148C268.651 652.575 269.089 650.703 269.089 648.552V570.431C267.895 567.843 266.96 565.891 266.243 564.577C265.547 563.282 264.751 562.167 263.895 561.251C263.02 560.335 261.846 559.16 260.333 557.766L257.568 554.998V553.366H286.301L340.187 626.946V565.712C340.187 563.541 339.828 561.59 339.132 559.857C338.436 558.125 337.003 556.99 334.834 556.452L329.481 554.998V553.366H352.683V554.998L348.305 556.452C346.355 557.109 345.161 558.244 344.743 559.857C344.306 561.49 344.087 563.382 344.087 565.533V661.038H334.993L272.989 575.768V648.532C272.989 650.703 273.307 652.535 273.964 654.048C274.621 655.562 275.974 656.637 278.023 657.294L282.898 658.927V660.56H258.224V660.58Z" fill="white"/>
<path d="M360.485 660.58V658.947L364.226 657.493C366.056 656.737 367.33 655.741 368.046 654.486C368.743 653.252 369.101 651.539 369.101 649.369V564.577C369.101 562.406 368.802 560.714 368.205 559.459C367.608 558.224 366.275 557.209 364.226 556.452L360.485 554.998V553.366H438.229L439.204 578.377H437.572L430.588 563.103C429.613 561.152 428.578 559.579 427.503 558.384C426.429 557.189 424.797 556.591 422.628 556.591H393.417V603.528H410.789C412.957 603.528 414.609 602.95 415.743 601.815C416.878 600.68 417.872 599.127 418.748 597.195L421.991 590.703H423.623V619.936H421.991L418.748 613.106C417.773 611.155 416.738 609.621 415.664 608.466C414.589 607.331 412.957 606.754 410.789 606.754H393.417V657.274H426.21C428.379 657.274 430.05 656.697 431.244 655.562C432.438 654.427 433.413 652.834 434.169 650.763L440.816 635.489H442.447L441.472 660.5H360.485V660.58Z" fill="white"/>
<path d="M485.447 663.507C479.497 663.507 473.428 662.771 467.279 661.317C461.13 659.863 455.977 657.932 451.858 655.542L452.674 633.458H454.305L459.34 644.012C460.852 647.039 462.484 649.727 464.215 652.057C465.946 654.387 468.334 656.199 471.358 657.493C473.527 658.569 475.597 659.306 477.606 659.684C479.596 660.062 481.845 660.261 484.332 660.261C490.939 660.261 496.152 658.469 499.992 654.905C503.833 651.34 505.763 646.72 505.763 641.105C505.763 635.808 504.47 631.666 501.863 628.679C499.276 625.711 495.097 622.804 489.367 619.996L482.72 617.069C473.408 612.947 466.145 608.207 460.892 602.851C455.638 597.494 453.012 590.365 453.012 581.484C453.012 575.091 454.663 569.575 457.967 564.915C461.27 560.256 465.866 556.691 471.756 554.202C477.646 551.713 484.551 550.458 492.451 550.458C498.182 550.458 503.614 551.215 508.768 552.728C513.902 554.242 518.379 556.293 522.16 558.902L521.185 578.397H519.553L512.907 566.21C511.056 562.426 509.225 559.738 507.395 558.165C505.564 556.592 503.435 555.476 501.067 554.839C499.654 554.401 498.361 554.102 497.167 553.943C495.973 553.784 494.461 553.704 492.63 553.704C487.118 553.704 482.462 555.297 478.681 558.503C474.9 561.689 473.01 566.011 473.01 571.407C473.01 576.804 474.463 581.344 477.388 584.65C480.313 587.955 484.591 590.903 490.202 593.511L497.664 596.757C508.051 601.298 515.513 606.156 520.07 611.294C524.607 616.432 526.895 623.063 526.895 631.188C526.895 640.726 523.294 648.493 516.11 654.506C508.907 660.52 498.719 663.527 485.506 663.527L485.447 663.507Z" fill="white"/>
<path d="M573.757 661.078L539.014 564.279C538.258 562.108 537.263 560.415 536.009 559.161C534.776 557.926 533.064 556.97 530.895 556.313L526.995 555.019V553.386H573.737V555.019L568.703 556.473C566.215 557.13 564.822 558.265 564.564 559.878C564.285 561.511 564.544 563.502 565.3 565.892L589.318 637.202L613.495 565.732C614.35 563.243 614.768 561.192 614.708 559.559C614.649 557.926 613.375 556.791 610.888 556.154L606.669 555.019V553.386H629.393V555.019L625.016 556.313C622.966 556.851 621.494 557.807 620.638 559.161C619.763 560.515 618.967 562.267 618.21 564.438L585.756 661.078H573.737H573.757Z" fill="white"/>
<path d="M633.811 660.58V658.947L637.055 657.653C639.224 656.896 640.656 655.86 641.353 654.566C642.049 653.272 642.407 651.539 642.407 649.369V564.577C642.407 562.406 642.089 560.674 641.432 559.379C640.776 558.085 639.323 557.05 637.055 556.293L633.811 554.998V553.366H675.519V554.998L672.275 556.293C670.106 557.05 668.674 558.085 667.977 559.379C667.281 560.674 666.922 562.406 666.922 564.577V649.369C666.922 651.539 667.281 653.232 667.977 654.486C668.674 655.741 670.106 656.796 672.275 657.653L675.519 658.947V660.58H633.811Z" fill="white"/>
<path d="M682.661 660.58V658.947L686.064 657.653C688.333 656.796 689.765 655.741 690.362 654.486C690.959 653.252 691.258 651.539 691.258 649.369V564.577C691.258 562.406 690.939 560.674 690.283 559.379C689.626 558.085 688.233 557.05 686.064 556.293L682.661 554.998V553.366H724.051V554.998L721.126 556.293C719.076 557.05 717.663 558.105 716.907 559.459C716.151 560.813 715.773 562.566 715.773 564.736V657.314H740.765C744.765 657.314 747.71 656.338 749.62 654.387C751.511 652.435 753.322 649.627 755.053 645.943L761.38 632.303H763.012L761.56 660.56H682.681L682.661 660.58Z" fill="white"/>
<path d="M768.843 660.58V658.947L772.246 657.653C774.515 656.796 775.947 655.741 776.544 654.486C777.141 653.252 777.44 651.539 777.44 649.369V564.577C777.44 562.406 777.121 560.674 776.465 559.379C775.808 558.085 774.415 557.05 772.246 556.293L768.843 554.998V553.366H810.233V554.998L807.307 556.293C805.258 557.05 803.845 558.105 803.089 559.459C802.333 560.813 801.955 562.566 801.955 564.736V657.314H826.947C830.947 657.314 833.892 656.338 835.802 654.387C837.693 652.435 839.503 649.627 841.235 645.943L847.562 632.303H849.194L847.741 660.56H768.863L768.843 660.58Z" fill="white"/>
<path d="M855.024 660.58V658.947L858.765 657.493C860.595 656.737 861.869 655.741 862.585 654.486C863.282 653.252 863.64 651.539 863.64 649.369V564.577C863.64 562.406 863.341 560.714 862.744 559.459C862.147 558.224 860.814 557.209 858.765 556.452L855.024 554.998V553.366H932.768L933.743 578.377H932.111L925.127 563.103C924.152 561.152 923.117 559.579 922.042 558.384C920.968 557.189 919.336 556.591 917.167 556.591H887.956V603.528H905.327C907.496 603.528 909.148 602.95 910.282 601.815C911.416 600.68 912.411 599.127 913.287 597.195L916.53 590.703H918.162V619.936H916.53L913.287 613.106C912.312 611.155 911.277 609.621 910.203 608.466C909.128 607.331 907.496 606.754 905.327 606.754H887.956V657.274H920.749C922.918 657.274 924.589 656.697 925.783 655.562C926.977 654.427 927.952 652.834 928.708 650.763L935.354 635.489H936.986L936.011 660.5H855.024V660.58Z" fill="white"/>
<path d="M1.53174 748.619V747.643L3.95937 746.767C5.25278 746.249 6.24772 745.612 6.96407 744.875C7.68042 744.138 8.25748 743.083 8.71515 741.729L28.6536 684.497H36.8717L56.5117 742.127C57.029 743.541 57.6061 744.636 58.2628 745.373C58.8995 746.11 59.9143 746.747 61.2674 747.265L62.4216 747.643V748.619H37.8468V747.643L39.2994 747.165C40.6525 746.648 41.4683 745.931 41.7668 744.995C42.0653 744.059 42.0056 742.944 41.6275 741.649L37.0707 727.71H15.5603L10.9239 741.37C10.4662 742.784 10.3269 743.919 10.4861 744.756C10.6453 745.592 11.4015 746.269 12.7546 746.787L14.8837 747.663V748.639H1.53174V748.619ZM16.2368 725.758H36.4538L26.6836 695.649L16.2368 725.758Z" fill="white"/>
<path d="M87.6725 750.072C83.2749 750.072 79.2951 749.117 75.7134 747.225C72.1316 745.313 69.2861 742.545 67.1968 738.901C65.1074 735.257 64.0528 730.776 64.0528 725.479C64.0528 720.182 65.2069 715.781 67.4952 712.057C69.7836 708.354 72.848 705.506 76.6884 703.534C80.5288 701.563 84.7275 700.587 89.324 700.587C93.065 700.587 96.2289 701.205 98.8157 702.419C101.403 703.654 103.372 705.247 104.726 707.219C106.079 709.19 106.755 711.241 106.755 713.372C106.755 715.184 106.198 716.578 105.104 717.593C104.009 718.589 102.596 719.087 100.845 719.087C98.9749 719.087 97.4626 718.41 96.2886 717.056C95.1145 715.702 94.4579 713.929 94.2589 711.739C94.1992 710.325 94.2191 709.11 94.3584 708.115C94.4778 707.119 94.4778 706.103 94.3584 705.068C94.0997 703.973 93.7017 703.236 93.1446 702.897C92.5874 702.539 91.8313 702.36 90.8761 702.36C86.9362 702.36 83.8917 704.072 81.7228 707.497C79.5538 710.922 78.4793 716.379 78.4793 723.866C78.4793 730.398 79.6931 735.376 82.1008 738.821C84.5285 742.286 88.2495 743.999 93.2839 743.999C96.3085 743.999 98.7759 743.441 100.646 742.346C102.517 741.251 104.328 739.598 106.059 737.407L107.034 738.184C105.422 741.987 102.935 744.935 99.5917 747.006C96.2289 749.077 92.269 750.112 87.6923 750.112L87.6725 750.072Z" fill="white"/>
<path d="M134.891 750.072C130.494 750.072 126.514 749.117 122.932 747.225C119.35 745.313 116.505 742.545 114.416 738.901C112.326 735.257 111.272 730.776 111.272 725.479C111.272 720.182 112.426 715.781 114.714 712.057C117.002 708.354 120.067 705.506 123.907 703.534C127.748 701.563 131.946 700.587 136.543 700.587C140.284 700.587 143.448 701.205 146.034 702.419C148.621 703.654 150.591 705.247 151.944 707.219C153.297 709.19 153.974 711.241 153.974 713.372C153.974 715.184 153.417 716.578 152.322 717.593C151.228 718.589 149.815 719.087 148.064 719.087C146.194 719.087 144.681 718.41 143.507 717.056C142.333 715.702 141.677 713.929 141.478 711.739C141.418 710.325 141.438 709.11 141.577 708.115C141.697 707.119 141.697 706.103 141.577 705.068C141.318 703.973 140.921 703.236 140.363 702.897C139.806 702.539 139.05 702.36 138.095 702.36C134.155 702.36 131.11 704.072 128.942 707.497C126.773 710.922 125.698 716.379 125.698 723.866C125.698 730.398 126.912 735.376 129.32 738.821C131.747 742.286 135.468 743.999 140.503 743.999C143.527 743.999 145.995 743.441 147.865 742.346C149.736 741.251 151.546 739.598 153.278 737.407L154.253 738.184C152.641 741.987 150.153 744.935 146.811 747.006C143.448 749.077 139.488 750.112 134.911 750.112L134.891 750.072Z" fill="white"/>
<path d="M158.889 748.618V747.642L160.242 747.264C161.536 746.886 162.411 746.288 162.909 745.511C163.386 744.735 163.625 743.699 163.625 742.405V712.097C163.625 710.742 163.386 709.727 162.909 709.05C162.431 708.373 161.536 707.895 160.242 707.636L158.889 707.337V706.361L176.599 700.646L177.574 701.622L177.276 715.382V742.505C177.276 743.799 177.514 744.834 177.992 745.611C178.469 746.388 179.325 746.965 180.559 747.363L181.534 747.662V748.638H158.889V748.618ZM170.311 695.548C168.122 695.548 166.272 694.851 164.739 693.458C163.227 692.064 162.471 690.311 162.471 688.18C162.471 686.05 163.227 684.218 164.739 682.864C166.252 681.509 168.102 680.832 170.311 680.832C172.52 680.832 174.35 681.509 175.823 682.864C177.315 684.218 178.052 685.99 178.052 688.18C178.052 690.371 177.315 692.064 175.823 693.458C174.331 694.851 172.5 695.548 170.311 695.548Z" fill="white"/>
<path d="M206.308 750.072C202.508 750.072 199.085 749.216 196.04 747.504C193.016 745.791 190.608 743.142 188.837 739.558C187.066 735.974 186.171 731.374 186.171 725.758C186.171 720.142 187.166 715.383 189.175 711.659C191.165 707.955 193.812 705.167 197.115 703.335C200.398 701.503 203.98 700.567 207.86 700.567C210.109 700.567 212.278 700.786 214.347 701.244C216.417 701.702 218.247 702.38 219.859 703.276V690.69C219.859 689.336 219.64 688.341 219.222 687.683C218.805 687.046 217.909 686.588 216.556 686.329L214.725 685.931V684.955L232.336 680.694L233.41 681.57L233.032 695.131V742.485C233.032 743.78 233.251 744.815 233.709 745.632C234.166 746.448 235.002 747.006 236.216 747.324L237.091 747.623V748.599L220.536 749.674L219.66 746.189C217.909 747.344 215.939 748.28 213.71 748.997C211.482 749.714 209.014 750.072 206.308 750.072ZM211.92 746.488C214.626 746.488 217.113 745.691 219.362 744.059V705.606C216.974 704.052 214.526 703.276 211.999 703.276C208.895 703.276 206.248 705.068 204.06 708.652C201.871 712.237 200.776 717.872 200.776 725.559C200.776 733.245 201.811 738.642 203.881 741.788C205.95 744.915 208.616 746.488 211.92 746.488Z" fill="white"/>
<path d="M265.625 700.587C269.824 700.587 273.405 701.444 276.37 703.156C279.335 704.869 281.604 707.199 283.195 710.126C284.767 713.073 285.563 716.399 285.563 720.142C285.563 720.859 285.524 721.576 285.464 722.313C285.404 723.05 285.265 723.727 285.086 724.304H256.253C256.312 731.274 257.566 736.292 259.974 739.359C262.381 742.426 265.983 743.959 270.759 743.959C273.982 743.959 276.589 743.441 278.599 742.406C280.589 741.37 282.479 739.857 284.21 737.846L285.185 738.722C283.176 742.266 280.529 745.054 277.206 747.046C273.883 749.037 269.903 750.052 265.247 750.052C260.591 750.052 256.591 749.057 253.049 747.105C249.507 745.134 246.721 742.306 244.731 738.622C242.722 734.938 241.727 730.557 241.727 725.459C241.727 720.361 242.881 715.662 245.209 711.958C247.537 708.254 250.522 705.426 254.163 703.495C257.805 701.563 261.625 700.587 265.625 700.587ZM265.326 702.519C263.456 702.519 261.864 703.076 260.531 704.212C259.198 705.347 258.183 707.338 257.427 710.225C256.69 713.093 256.273 717.155 256.213 722.373H272.769C273.405 715.343 273.147 710.265 271.993 707.159C270.838 704.052 268.61 702.519 265.307 702.519H265.326Z" fill="white"/>
<path d="M290.399 748.618V747.643L291.752 747.264C294 746.627 295.134 745.034 295.134 742.525V712.216C295.134 710.803 294.916 709.747 294.458 709.07C294 708.393 293.145 707.915 291.851 707.656L290.399 707.278V706.302L306.954 700.686L307.929 701.662L308.705 707.477C310.954 705.486 313.521 703.833 316.346 702.538C319.192 701.244 321.998 700.607 324.764 700.607C329.022 700.607 332.305 701.762 334.593 704.092C336.882 706.422 338.036 709.966 338.036 714.745V742.644C338.036 745.153 339.27 746.746 341.717 747.384L342.593 747.682V748.658H319.749V747.682L321.003 747.304C323.251 746.587 324.385 745.014 324.385 742.565V711.679C324.385 707.557 322.316 705.486 318.197 705.486C315.351 705.486 312.267 706.899 308.904 709.747V742.684C308.904 745.193 310.039 746.786 312.287 747.424L313.163 747.722V748.698H290.418L290.399 748.618Z" fill="white"/>
<path d="M364.243 750.072C360.104 750.072 356.9 749.036 354.612 746.965C352.323 744.894 351.169 741.609 351.169 737.088V703.972H344.483V702.996L346.811 702.598C348.801 702.14 350.533 701.503 351.985 700.666C353.438 699.83 354.87 698.695 356.283 697.281L364.223 688.459H365.198L364.899 702.02H375.744V703.952H364.8V738.821C364.8 741.091 365.297 742.783 366.292 743.958C367.287 745.113 368.561 745.711 370.113 745.711C371.466 745.711 372.66 745.372 373.695 744.695C374.729 744.018 375.764 743.102 376.799 741.927L377.774 742.903C376.48 745.093 374.709 746.846 372.461 748.14C370.192 749.435 367.466 750.072 364.243 750.072Z" fill="white"/>
<path d="M422.308 750.072C418.05 750.072 414.428 749.275 411.423 747.702C408.419 746.129 406.15 744.038 404.598 741.449C403.046 738.861 402.27 735.993 402.27 732.827C402.27 725.021 407.304 719.007 417.373 714.805C415.562 712.356 413.97 709.866 412.577 707.357C411.185 704.848 410.488 701.901 410.488 698.536C410.488 693.955 412.12 690.291 415.383 687.543C418.647 684.795 422.925 683.421 428.198 683.421C433.471 683.421 437.351 684.576 440.197 686.866C443.042 689.156 444.455 692.183 444.455 695.927C444.455 699.093 443.162 701.861 440.575 704.251C437.988 706.64 434.307 708.831 429.551 710.842C430.785 712.196 432.058 713.63 433.372 715.163C434.685 716.677 436.058 718.19 437.491 719.664C439.242 721.595 440.933 723.447 442.565 725.18C444.196 726.912 445.868 728.725 447.539 730.596C449.091 728.466 450.544 725.877 451.897 722.85C453.25 719.823 454.325 716.617 455.081 713.252C455.598 710.802 454.663 709.209 452.275 708.512L451.599 708.214V707.238H462.543V708.214L461.667 708.512C459.538 709.229 458.145 710.703 457.509 712.973C456.534 716.597 455.34 720.002 453.927 723.248C452.514 726.474 450.862 729.421 448.992 732.07L459.339 743.022C460.175 743.918 461.011 744.675 461.847 745.253C462.682 745.83 463.617 746.408 464.652 747.005L466.005 747.682V748.658H446.465L439.978 741.688C438.744 743.042 437.371 744.377 435.819 745.651C434.267 746.945 432.397 748.001 430.208 748.857C428.019 749.693 425.372 750.112 422.268 750.112L422.308 750.072ZM427.919 743.58C430.168 743.58 432.217 743.241 434.008 742.564C435.819 741.887 437.371 741.031 438.645 739.996C437.093 738.243 435.481 736.431 433.809 734.519C432.138 732.608 430.546 730.796 429.073 729.043C427.263 726.912 425.512 724.782 423.8 722.651C422.089 720.52 420.398 718.449 418.726 716.458C417.055 718.011 415.821 719.823 415.045 721.874C414.269 723.945 413.891 726.096 413.891 728.366C413.891 732.767 415.204 736.391 417.811 739.259C420.418 742.126 423.8 743.56 427.919 743.56V743.58ZM428.397 709.588C430.904 707.337 432.735 705.047 433.869 702.757C435.003 700.467 435.56 697.938 435.56 695.15C435.56 692.641 434.924 690.59 433.63 688.997C432.337 687.424 430.566 686.627 428.317 686.627C426.188 686.627 424.417 687.404 422.984 688.957C421.572 690.51 420.855 692.482 420.855 694.872C420.855 696.365 421.134 697.898 421.671 699.511C422.208 701.124 423.203 702.956 424.616 705.027C424.994 705.545 425.512 706.162 426.168 706.859C426.805 707.576 427.561 708.472 428.397 709.568V709.588Z" fill="white"/>
<path d="M492.948 748.618V747.643L494.878 746.866C496.172 746.408 497.027 745.791 497.445 745.034C497.863 744.257 498.082 743.222 498.082 741.928V691.367C498.082 690.073 497.883 689.037 497.505 688.261C497.127 687.484 496.251 686.867 494.898 686.429L492.968 685.652V684.676H517.841V685.652L515.911 686.429C514.618 686.887 513.762 687.504 513.344 688.261C512.926 689.037 512.707 690.073 512.707 691.367V741.928C512.707 743.222 512.926 744.237 513.344 744.974C513.762 745.711 514.618 746.348 515.911 746.866L517.841 747.643V748.618H492.968H492.948Z" fill="white"/>
<path d="M521.881 748.618V747.643L523.234 747.264C525.483 746.627 526.617 745.034 526.617 742.525V712.216C526.617 710.803 526.398 709.747 525.94 709.07C525.483 708.393 524.607 707.915 523.334 707.656L521.881 707.278V706.302L538.437 700.686L539.412 701.662L540.188 707.477C542.436 705.486 545.003 703.833 547.829 702.538C550.674 701.244 553.48 700.607 556.246 700.607C560.504 700.607 563.768 701.762 566.076 704.092C568.364 706.422 569.518 709.966 569.518 714.745V742.644C569.518 745.153 570.752 746.746 573.2 747.384L574.075 747.682V748.658H551.232V747.682L552.485 747.304C554.734 746.587 555.868 745.014 555.868 742.565V711.679C555.868 707.557 553.799 705.486 549.68 705.486C546.834 705.486 543.75 706.899 540.387 709.747V742.684C540.387 745.193 541.521 746.786 543.77 747.424L544.645 747.722V748.698H521.901L521.881 748.618Z" fill="white"/>
<path d="M575.886 771.857C572.205 771.857 569.558 771.22 567.946 769.965C566.335 768.711 565.519 767.078 565.519 765.067C565.519 763.254 566.176 761.801 567.449 760.705C568.742 759.61 570.255 759.053 572.006 759.053C573.757 759.053 575.329 759.491 576.742 760.367C578.154 761.243 579.249 762.617 580.025 764.489L581 766.62C581.458 767.337 581.975 767.576 582.592 767.357C583.209 767.138 583.507 766.122 583.507 764.31V712.196C583.507 710.703 583.169 709.627 582.492 708.95C581.816 708.273 580.841 707.795 579.547 707.536L578.095 707.337V706.361L596.183 700.646L597.337 701.622L597.038 715.382V742.305C597.038 746.507 596.859 750.012 596.501 752.86C596.143 755.707 595.526 758.097 594.67 760.068C593.795 762.04 592.561 763.872 590.949 765.544C588.681 767.795 586.233 769.428 583.587 770.383C580.94 771.359 578.353 771.837 575.846 771.837L575.886 771.857ZM590.213 695.548C588.024 695.548 586.174 694.851 584.701 693.458C583.209 692.064 582.472 690.311 582.472 688.18C582.472 686.05 583.209 684.218 584.701 682.864C586.193 681.509 588.024 680.832 590.213 680.832C592.402 680.832 594.252 681.509 595.785 682.864C597.317 684.218 598.053 685.99 598.053 688.18C598.053 690.371 597.297 692.064 595.785 693.458C594.272 694.851 592.422 695.548 590.213 695.548Z" fill="white"/>
<path d="M622.527 750.072C620.02 750.072 617.712 749.594 615.603 748.618C613.493 747.643 611.862 746.089 610.668 743.919C609.474 741.748 608.917 738.901 608.976 735.356L609.275 710.464C609.275 708.971 609.016 707.915 608.499 707.278C607.981 706.641 607.166 706.183 606.071 705.924L604.917 705.525V704.55L622.249 701.164L623.224 702.14L622.746 715.9V739.239C622.746 741.31 623.343 742.824 624.537 743.799C625.731 744.775 627.223 745.253 629.034 745.253C630.845 745.253 632.457 744.994 633.87 744.476C635.282 743.959 636.715 743.182 638.128 742.146L638.506 710.584C638.506 709.09 638.287 708.054 637.829 707.437C637.372 706.82 636.536 706.382 635.322 706.123L634.347 705.824V704.848L651.281 701.164L652.256 702.14L651.957 715.9V742.146C651.957 743.56 652.156 744.656 652.534 745.432C652.913 746.209 653.768 746.846 655.042 747.364L656.017 747.663V748.638L639.083 749.614L638.208 743.899C636.078 745.651 633.77 747.105 631.283 748.3C628.795 749.495 625.87 750.092 622.527 750.092V750.072Z" fill="white"/>
<path d="M659.877 748.619V747.643L661.33 747.265C662.623 746.886 663.499 746.289 663.996 745.512C664.474 744.736 664.713 743.74 664.713 742.505V712.197C664.713 710.783 664.474 709.728 663.996 709.051C663.519 708.373 662.623 707.896 661.33 707.637L659.877 707.258V706.283L676.532 700.667L677.508 701.643L678.383 709.967V710.743C679.278 708.931 680.472 707.278 681.925 705.765C683.378 704.251 684.989 702.997 686.76 702.041C688.531 701.065 690.302 700.587 692.033 700.587C694.481 700.587 696.352 701.264 697.645 702.618C698.938 703.973 699.575 705.685 699.575 707.756C699.575 709.947 698.938 711.639 697.685 712.834C696.431 714.029 694.919 714.626 693.188 714.626C690.481 714.626 688.094 713.272 686.024 710.564L685.825 710.365C685.188 709.469 684.432 708.951 683.596 708.871C682.761 708.772 681.985 709.17 681.268 710.086C680.632 710.664 680.094 711.361 679.676 712.177C679.259 712.993 678.861 713.909 678.463 714.945V741.968C678.463 744.556 679.597 746.169 681.845 746.807L684.95 747.683V748.659H659.877V748.619Z" fill="white"/>
<path d="M713.008 771.857C710.421 771.857 708.372 771.22 706.859 769.925C705.347 768.631 704.591 766.978 704.591 764.987C704.591 763.175 705.228 761.721 706.521 760.626C707.814 759.53 709.267 758.973 710.879 758.973C712.491 758.973 713.844 759.311 714.938 759.989C716.033 760.666 717.008 761.641 717.843 762.936L718.52 763.712C719.933 765.644 721.365 765.624 722.778 763.613C723.355 762.637 724.012 761.363 724.768 759.789C725.504 758.216 726.36 756.085 727.335 753.437L708.571 708.492C708.113 707.257 707.635 706.282 707.118 705.545C706.601 704.808 705.765 704.171 704.611 703.653L702.86 702.976V702H726.957V702.876L725.027 703.653C723.614 704.111 722.878 704.828 722.858 705.824C722.818 706.819 723.057 708.074 723.574 709.548L733.643 735.694L743.234 709.249C743.751 707.755 743.95 706.521 743.811 705.525C743.672 704.529 742.876 703.832 741.383 703.454L739.354 702.976V702H752.805V702.976L750.676 703.653C749.184 704.111 748.169 704.748 747.572 705.585C746.995 706.421 746.438 707.596 745.92 709.07L730.34 751.585C727.833 758.356 725.305 763.434 722.798 766.799C720.291 770.164 717.028 771.837 713.028 771.837L713.008 771.857Z" fill="white"/>
<path d="M777.279 748.618V747.643L779.309 746.866C780.662 746.348 781.517 745.711 781.876 744.974C782.234 744.237 782.413 743.222 782.413 741.928V691.367C782.413 690.073 782.214 689.037 781.836 688.261C781.458 687.484 780.602 686.867 779.329 686.429L777.299 685.652V684.676H801.973V685.652L800.222 686.429C798.988 686.887 798.153 687.504 797.715 688.32C797.257 689.137 797.038 690.172 797.038 691.467V746.667H811.942C814.33 746.667 816.081 746.089 817.216 744.915C818.35 743.76 819.424 742.067 820.459 739.876L824.24 731.752H825.215L824.339 748.599H777.299L777.279 748.618Z" fill="white"/>
<path d="M843.463 750.071C839.722 750.071 836.578 748.996 834.031 746.885C831.484 744.754 830.21 741.688 830.21 737.685C830.21 734.658 831.762 731.87 834.847 729.301C837.951 726.752 842.806 724.821 849.452 723.546C850.487 723.347 851.641 723.148 852.935 722.909C854.228 722.69 855.581 722.431 856.994 722.172V714.526C856.994 710.125 856.457 707.058 855.402 705.286C854.328 703.513 852.676 702.617 850.427 702.617C848.875 702.617 847.661 703.115 846.746 704.111C845.851 705.106 845.254 706.839 844.995 709.288L844.796 710.344C844.657 713.112 843.98 715.163 842.766 716.437C841.553 717.712 840.02 718.369 838.21 718.369C836.538 718.369 835.145 717.851 834.051 716.816C832.956 715.78 832.399 714.386 832.399 712.654C832.399 710.005 833.315 707.775 835.165 705.963C836.996 704.151 839.443 702.796 842.468 701.9C845.493 701.004 848.796 700.546 852.338 700.546C858.068 700.546 862.506 701.96 865.65 704.768C868.794 707.576 870.346 712.136 870.346 718.468V739.875C870.346 742.783 871.699 744.237 874.405 744.237H876.534L877.41 745.013C876.176 746.566 874.843 747.761 873.39 748.598C871.938 749.434 869.888 749.852 867.242 749.852C864.396 749.852 862.168 749.195 860.516 747.861C858.864 746.547 857.79 744.774 857.273 742.584C855.342 744.655 853.352 746.407 851.323 747.861C849.293 749.314 846.667 750.031 843.443 750.031L843.463 750.071ZM849.373 744.157C850.666 744.157 851.88 743.858 852.994 743.241C854.129 742.624 855.462 741.668 857.014 740.393V724.124C856.377 724.263 855.72 724.383 855.084 724.502C854.447 724.642 853.691 724.761 852.855 724.901C849.89 725.677 847.522 726.972 845.731 728.823C843.96 730.656 843.065 733.125 843.065 736.231C843.065 738.88 843.682 740.871 844.896 742.185C846.129 743.52 847.602 744.177 849.353 744.177L849.373 744.157Z" fill="white"/>
<path d="M897.368 748.917L882.464 707.955C881.748 705.884 880.335 704.43 878.206 703.594L876.554 703.017V702.041H900.273V703.017L898.821 703.395C896.314 704.172 895.458 705.725 896.313 708.035L905.308 735.436L913.347 714.128L911.516 708.612C911.058 707.198 910.601 706.103 910.103 705.366C909.606 704.63 908.989 704.092 908.213 703.773L906.561 702.997V702.021H926.599V702.997L925.246 703.574C924.271 703.972 923.694 704.49 923.495 705.127C923.296 705.765 923.435 706.74 923.873 708.035L932.768 734.958L941.961 708.234C942.856 705.785 942.379 704.231 940.508 703.594L938.379 703.017V702.041H950V703.017L947.672 703.694C946.577 704.012 945.781 704.51 945.304 705.187C944.826 705.864 944.389 706.78 943.991 707.955L930.062 748.917H925.127L914.381 717.255L902.96 748.917H897.348H897.368Z" fill="white"/>
<path d="M245.331 832.632L236.994 809.731C236.596 808.576 235.8 807.76 234.606 807.302L233.691 806.983V806.446H246.943V806.983L246.127 807.202C244.714 807.641 244.257 808.497 244.714 809.791L249.749 825.125L254.246 813.216L253.211 810.13C252.952 809.333 252.694 808.736 252.435 808.318C252.176 807.899 251.818 807.601 251.38 807.421L250.465 806.983V806.446H261.668V806.983L260.912 807.302C260.375 807.521 260.036 807.8 259.937 808.158C259.837 808.517 259.897 809.054 260.156 809.791L265.13 824.846L270.264 809.911C270.762 808.537 270.503 807.68 269.448 807.322L268.254 807.003V806.466H274.741V807.003L273.448 807.382C272.831 807.561 272.393 807.84 272.115 808.218C271.836 808.596 271.597 809.114 271.379 809.771L263.578 832.672H260.812L254.803 814.969L248.416 832.672H245.272L245.331 832.632Z" fill="#F5BC00"/>
<path d="M276.61 832.474V831.936L277.366 831.717C278.083 831.498 278.58 831.18 278.859 830.741C279.137 830.303 279.257 829.726 279.257 829.009V812.063C279.257 811.306 279.117 810.728 278.859 810.35C278.58 809.972 278.083 809.713 277.366 809.573L276.61 809.414V808.876L286.52 805.69L287.057 806.228L286.898 813.915V829.069C286.898 829.786 287.037 830.363 287.296 830.801C287.574 831.239 288.052 831.558 288.728 831.777L289.266 831.936V832.474H276.61ZM282.997 802.803C281.764 802.803 280.729 802.424 279.893 801.648C279.038 800.871 278.62 799.895 278.62 798.701C278.62 797.506 279.038 796.47 279.893 795.714C280.749 794.957 281.784 794.579 282.997 794.579C284.211 794.579 285.246 794.957 286.082 795.714C286.918 796.47 287.315 797.466 287.315 798.701C287.315 799.935 286.898 800.871 286.082 801.648C285.246 802.424 284.231 802.803 282.997 802.803Z" fill="#F5BC00"/>
<path d="M301.922 833.29C299.613 833.29 297.823 832.712 296.529 831.557C295.256 830.402 294.599 828.57 294.599 826.041V807.522H290.858V806.984L292.151 806.765C293.266 806.506 294.241 806.148 295.057 805.69C295.873 805.212 296.668 804.594 297.464 803.798L301.902 798.879H302.439L302.28 806.466H308.349V807.542H302.24V827.037C302.24 828.292 302.519 829.267 303.076 829.905C303.633 830.562 304.349 830.88 305.205 830.88C305.961 830.88 306.638 830.681 307.215 830.303C307.792 829.924 308.369 829.407 308.946 828.769L309.483 829.307C308.767 830.542 307.772 831.518 306.498 832.234C305.225 832.951 303.713 833.31 301.902 833.31L301.922 833.29Z" fill="#F5BC00"/>
<path d="M311.333 832.473V831.936L311.99 831.716C313.283 831.278 313.94 830.382 313.94 829.008V800.094C313.94 799.337 313.821 798.779 313.562 798.421C313.303 798.063 312.826 797.784 312.109 797.605L311.294 797.386V796.848L320.825 794.518L321.701 795.016L321.482 802.643V809.413C322.735 808.358 324.108 807.482 325.561 806.725C327.014 805.988 328.645 805.61 330.396 805.61C332.744 805.61 334.615 806.267 335.988 807.621C337.361 808.975 338.077 811.006 338.077 813.794V829.068C338.077 829.785 338.216 830.362 338.515 830.8C338.794 831.239 339.311 831.557 340.027 831.776L340.465 831.936V832.473H327.809V831.936L328.466 831.776C329.76 831.338 330.416 830.422 330.416 829.008V812.002C330.416 810.568 330.177 809.573 329.68 809.015C329.202 808.477 328.327 808.199 327.113 808.199C326.317 808.199 325.461 808.358 324.526 808.657C323.591 808.955 322.636 809.493 321.661 810.25V829.088C321.661 830.502 322.317 831.398 323.611 831.796L324.049 831.896V832.433H311.393L311.333 832.473Z" fill="#F5BC00"/>
<path d="M359.171 833.449C357.4 833.449 356.047 833.111 355.092 832.414C354.136 831.737 353.659 830.801 353.659 829.646C353.659 828.63 354.017 827.854 354.713 827.316C355.41 826.778 356.246 826.5 357.181 826.5C358.116 826.5 358.952 826.699 359.668 827.117C360.385 827.535 361.061 828.252 361.678 829.248L362.653 830.92C362.832 831.179 363.051 831.299 363.33 831.299C363.608 831.299 363.787 831.139 363.907 830.821C364.126 830.104 364.285 829.049 364.364 827.655C364.444 826.261 364.504 824.588 364.504 822.597C364.504 820.326 364.444 817.399 364.344 813.835C364.245 810.27 364.126 805.849 364.026 800.632C364.026 799.079 363.449 798.103 362.295 797.705L361.061 797.267V796.729H375.229V797.267L374.035 797.705C373.378 797.964 372.941 798.282 372.702 798.7C372.463 799.119 372.344 799.696 372.344 800.453V811.166C372.344 814.711 372.185 817.638 371.866 819.948C371.548 822.258 371.01 824.269 370.294 825.962C369.399 828.372 367.926 830.223 365.877 831.518C363.847 832.792 361.618 833.43 359.191 833.43L359.171 833.449Z" fill="#F5BC00"/>
<path d="M389.734 833.29C386.988 833.29 384.62 832.713 382.59 831.578C380.56 830.443 379.008 828.83 377.914 826.739C376.819 824.648 376.262 822.198 376.262 819.371C376.262 816.543 376.839 814.113 378.013 812.062C379.187 810.011 380.799 808.418 382.829 807.303C384.858 806.188 387.167 805.63 389.734 805.63C392.3 805.63 394.589 806.188 396.599 807.283C398.608 808.378 400.22 809.971 401.394 812.023C402.568 814.074 403.145 816.543 403.145 819.391C403.145 822.238 402.588 824.707 401.494 826.778C400.399 828.849 398.847 830.462 396.837 831.598C394.828 832.733 392.46 833.31 389.714 833.31L389.734 833.29ZM389.734 832.215C390.987 832.215 392.002 831.856 392.758 831.14C393.514 830.423 394.071 829.128 394.41 827.296C394.748 825.464 394.927 822.856 394.927 819.49C394.927 816.125 394.748 813.476 394.41 811.644C394.071 809.812 393.514 808.518 392.758 807.801C392.002 807.084 390.987 806.726 389.734 806.726C388.48 806.726 387.445 807.084 386.669 807.801C385.893 808.518 385.336 809.812 384.998 811.644C384.659 813.476 384.48 816.105 384.48 819.49C384.48 822.875 384.659 825.444 384.998 827.296C385.336 829.128 385.893 830.423 386.669 831.14C387.445 831.856 388.46 832.215 389.734 832.215Z" fill="#F5BC00"/>
<path d="M405.535 832.474V831.936L406.291 831.717C407.544 831.359 408.181 830.482 408.181 829.069V812.122C408.181 811.326 408.062 810.748 407.803 810.37C407.544 809.991 407.067 809.733 406.35 809.593L405.535 809.374V808.836L414.787 805.69L415.325 806.228L415.762 809.474C417.016 808.358 418.449 807.442 420.041 806.706C421.633 805.989 423.205 805.63 424.757 805.63C427.144 805.63 428.975 806.287 430.249 807.582C431.522 808.876 432.179 810.868 432.179 813.536V829.128C432.179 830.542 432.855 831.418 434.228 831.777L434.706 831.936V832.474H421.931V831.936L422.627 831.717C423.881 831.319 424.518 830.443 424.518 829.069V811.804C424.518 809.494 423.364 808.339 421.055 808.339C419.464 808.339 417.732 809.135 415.862 810.728V829.128C415.862 830.542 416.499 831.418 417.752 831.777L418.23 831.936V832.474H405.515H405.535Z" fill="#F5BC00"/>
<path d="M444.375 833.29C442.286 833.29 440.515 832.693 439.102 831.498C437.669 830.303 436.973 828.59 436.973 826.36C436.973 824.667 437.848 823.094 439.58 821.68C441.311 820.247 444.037 819.191 447.758 818.454C448.335 818.355 448.992 818.235 449.708 818.096C450.424 817.976 451.18 817.837 451.976 817.698V813.416C451.976 810.967 451.678 809.234 451.081 808.239C450.484 807.243 449.549 806.745 448.295 806.745C447.42 806.745 446.743 807.024 446.246 807.582C445.748 808.139 445.41 809.115 445.271 810.469L445.171 811.066C445.092 812.62 444.713 813.755 444.037 814.472C443.36 815.189 442.505 815.547 441.49 815.547C440.555 815.547 439.779 815.268 439.162 814.691C438.545 814.113 438.246 813.337 438.246 812.361C438.246 810.887 438.764 809.633 439.779 808.617C440.793 807.602 442.166 806.845 443.858 806.347C445.549 805.849 447.4 805.59 449.37 805.59C452.573 805.59 455.061 806.367 456.812 807.94C458.563 809.513 459.438 812.062 459.438 815.607V827.575C459.438 829.208 460.195 830.004 461.707 830.004H462.901L463.378 830.442C462.702 831.299 461.946 831.976 461.13 832.454C460.314 832.932 459.18 833.151 457.687 833.151C456.095 833.151 454.842 832.772 453.926 832.035C453.011 831.299 452.394 830.303 452.116 829.088C451.041 830.243 449.927 831.219 448.793 832.035C447.658 832.852 446.186 833.25 444.375 833.25V833.29ZM447.678 829.984C448.395 829.984 449.071 829.805 449.708 829.467C450.345 829.128 451.081 828.59 451.957 827.873V818.773C451.598 818.853 451.24 818.912 450.882 818.992C450.524 819.072 450.106 819.131 449.648 819.211C447.997 819.649 446.664 820.366 445.669 821.402C444.674 822.437 444.176 823.811 444.176 825.544C444.176 827.017 444.514 828.132 445.211 828.869C445.887 829.606 446.723 829.984 447.698 829.984H447.678Z" fill="#F5BC00"/>
<path d="M474.782 833.29C472.474 833.29 470.683 832.712 469.389 831.557C468.116 830.402 467.459 828.57 467.459 826.041V807.522H463.718V806.984L465.012 806.765C466.126 806.506 467.101 806.148 467.917 805.69C468.733 805.212 469.529 804.594 470.325 803.798L474.762 798.879H475.299L475.14 806.466H481.209V807.542H475.1V827.037C475.1 828.292 475.379 829.267 475.936 829.905C476.493 830.562 477.21 830.88 478.065 830.88C478.821 830.88 479.498 830.681 480.075 830.303C480.652 829.924 481.229 829.407 481.806 828.769L482.343 829.307C481.627 830.542 480.632 831.518 479.359 832.234C478.105 832.951 476.553 833.31 474.762 833.31L474.782 833.29Z" fill="#F5BC00"/>
<path d="M484.194 832.473V831.936L484.85 831.716C486.144 831.278 486.8 830.382 486.8 829.008V800.094C486.8 799.337 486.681 798.779 486.422 798.421C486.164 798.063 485.686 797.784 484.97 797.605L484.154 797.386V796.848L493.685 794.518L494.541 795.016L494.322 802.643V809.413C495.576 808.358 496.949 807.482 498.401 806.725C499.854 805.988 501.466 805.61 503.237 805.61C505.585 805.61 507.455 806.267 508.828 807.621C510.221 808.955 510.918 811.006 510.918 813.794V829.068C510.918 829.785 511.057 830.362 511.355 830.8C511.634 831.239 512.151 831.557 512.868 831.776L513.305 831.936V832.473H500.65V831.936L501.306 831.776C502.6 831.338 503.257 830.422 503.257 829.008V812.002C503.257 810.568 503.018 809.573 502.52 809.015C502.023 808.477 501.167 808.199 499.953 808.199C499.157 808.199 498.302 808.358 497.367 808.657C496.431 808.955 495.476 809.493 494.501 810.25V829.088C494.501 830.502 495.158 831.398 496.451 831.796L496.889 831.896V832.433H484.233L484.194 832.473Z" fill="#F5BC00"/>
<path d="M529.105 833.29C526.359 833.29 523.991 832.713 521.961 831.578C519.952 830.443 518.38 828.83 517.285 826.739C516.191 824.648 515.634 822.198 515.634 819.371C515.634 816.543 516.211 814.113 517.385 812.062C518.559 810.011 520.17 808.418 522.2 807.303C524.23 806.188 526.538 805.63 529.105 805.63C531.672 805.63 533.96 806.188 535.97 807.283C537.98 808.378 539.592 809.971 540.766 812.023C541.94 814.074 542.517 816.543 542.517 819.391C542.517 822.238 541.959 824.707 540.865 826.778C539.771 828.849 538.219 830.462 536.209 831.598C534.199 832.733 531.831 833.31 529.085 833.31L529.105 833.29ZM529.105 832.215C530.359 832.215 531.373 831.856 532.13 831.14C532.886 830.423 533.443 829.128 533.781 827.296C534.119 825.464 534.298 822.856 534.298 819.49C534.298 816.125 534.119 813.476 533.781 811.644C533.443 809.812 532.886 808.518 532.13 807.801C531.373 807.084 530.359 806.726 529.105 806.726C527.851 806.726 526.817 807.084 526.041 807.801C525.264 808.518 524.707 809.812 524.369 811.644C524.031 813.476 523.852 816.105 523.852 819.49C523.852 822.875 524.031 825.444 524.369 827.296C524.707 829.128 525.264 830.423 526.041 831.14C526.817 831.856 527.831 832.215 529.105 832.215Z" fill="#F5BC00"/>
<path d="M544.884 832.474V831.936L545.64 831.717C546.894 831.359 547.531 830.482 547.531 829.069V812.122C547.531 811.326 547.411 810.748 547.153 810.37C546.894 809.991 546.417 809.733 545.7 809.593L544.884 809.374V808.836L554.137 805.69L554.674 806.228L555.112 809.474C556.366 808.358 557.799 807.442 559.39 806.706C560.982 805.989 562.554 805.63 564.106 805.63C566.494 805.63 568.325 806.287 569.598 807.582C570.872 808.876 571.529 810.868 571.529 813.536V829.128C571.529 830.542 572.205 831.418 573.578 831.777L574.056 831.936V832.474H561.281V831.936L561.977 831.717C563.231 831.319 563.868 830.443 563.868 829.069V811.804C563.868 809.494 562.714 808.339 560.405 808.339C558.813 808.339 557.082 809.135 555.212 810.728V829.128C555.212 830.542 555.848 831.418 557.102 831.777L557.6 831.936V832.474H544.884Z" fill="#F5BC00"/>
<path d="M588.064 832.474V831.936L589.298 831.438C589.914 831.179 590.332 830.861 590.571 830.443C590.81 830.024 590.929 829.467 590.929 828.73V800.473C590.929 799.756 590.83 799.178 590.631 798.76C590.432 798.342 589.994 798.003 589.298 797.764L588.064 797.267V796.729H613.972L614.29 805.073H613.753L611.425 799.975C611.107 799.318 610.748 798.8 610.39 798.402C610.032 798.003 609.495 797.804 608.758 797.804H599.028V813.456H604.819C605.535 813.456 606.092 813.257 606.47 812.879C606.848 812.5 607.186 811.983 607.465 811.345L608.54 809.175H609.077V818.913H608.54L607.465 816.642C607.147 815.985 606.789 815.487 606.43 815.109C606.072 814.731 605.535 814.532 604.799 814.532H599.008V831.378H609.932C610.649 831.378 611.206 831.199 611.604 830.801C612.002 830.403 612.32 829.885 612.579 829.208L614.788 824.11H615.325L615.007 832.454H588.004L588.064 832.474Z" fill="#F5BC00"/>
<path d="M627.244 833.19L618.11 832.493V831.955L618.648 831.855C620.06 831.537 620.757 830.621 620.757 829.147V800.173C620.757 799.416 620.638 798.839 620.399 798.441C620.16 798.042 619.682 797.783 618.966 797.624L618.21 797.405V796.867L627.841 794.538L628.498 795.035L628.279 802.662V808.138C629.473 807.302 630.766 806.685 632.179 806.267C633.592 805.848 635.004 805.649 636.457 805.649C638.507 805.649 640.337 806.127 641.929 807.083C643.521 808.039 644.775 809.512 645.69 811.524C646.605 813.535 647.063 816.104 647.063 819.25C647.063 822.396 646.546 825.005 645.511 827.076C644.476 829.147 643.103 830.72 641.392 831.756C639.681 832.791 637.79 833.329 635.741 833.329C634.407 833.329 633.054 833.15 631.701 832.791C630.348 832.433 629.154 831.935 628.1 831.278L627.244 833.229V833.19ZM633.034 831.457C634.189 831.457 635.203 831.099 636.059 830.382C636.915 829.665 637.611 828.43 638.109 826.678C638.606 824.926 638.865 822.516 638.865 819.449C638.865 816.383 638.626 814.013 638.168 812.36C637.691 810.707 637.034 809.552 636.198 808.895C635.363 808.238 634.328 807.919 633.134 807.919C631.442 807.919 629.871 808.397 628.418 809.333V830.123C629.094 830.561 629.811 830.9 630.527 831.119C631.244 831.358 632.079 831.477 633.014 831.477L633.034 831.457Z" fill="#F5BC00"/>
<path d="M663.321 805.63C665.669 805.63 667.659 806.108 669.331 807.064C670.982 808.02 672.256 809.314 673.151 810.967C674.027 812.62 674.484 814.472 674.484 816.563C674.484 816.961 674.484 817.359 674.425 817.777C674.385 818.196 674.325 818.554 674.206 818.892H658.088C658.128 822.796 658.824 825.603 660.177 827.316C661.53 829.028 663.54 829.885 666.207 829.885C668.017 829.885 669.47 829.586 670.584 829.009C671.699 828.431 672.753 827.575 673.728 826.46L674.266 826.938C673.151 828.929 671.659 830.482 669.808 831.597C667.958 832.712 665.729 833.27 663.122 833.27C660.516 833.27 658.287 832.712 656.297 831.617C654.307 830.522 652.755 828.929 651.641 826.878C650.526 824.827 649.969 822.357 649.969 819.51C649.969 816.662 650.626 814.034 651.919 811.963C653.213 809.892 654.884 808.318 656.934 807.223C658.964 806.148 661.113 805.59 663.341 805.59L663.321 805.63ZM663.162 806.705C662.107 806.705 661.232 807.024 660.476 807.661C659.74 808.299 659.162 809.414 658.745 811.027C658.327 812.64 658.108 814.89 658.068 817.817H667.321C667.679 813.874 667.54 811.047 666.883 809.314C666.227 807.582 664.993 806.705 663.142 806.705H663.162Z" fill="#F5BC00"/>
<path d="M677.17 832.474V831.936L677.985 831.717C678.702 831.498 679.199 831.179 679.478 830.741C679.756 830.303 679.876 829.746 679.876 829.069V812.122C679.876 811.326 679.736 810.748 679.478 810.37C679.219 809.991 678.722 809.733 677.985 809.593L677.17 809.374V808.836L686.482 805.69L687.019 806.228L687.517 810.887V811.326C688.014 810.31 688.671 809.394 689.487 808.538C690.303 807.681 691.198 807.004 692.193 806.447C693.188 805.909 694.163 805.63 695.138 805.63C696.511 805.63 697.546 806.009 698.282 806.765C698.998 807.522 699.357 808.478 699.357 809.633C699.357 810.868 698.998 811.803 698.302 812.481C697.605 813.138 696.75 813.476 695.795 813.476C694.282 813.476 692.949 812.72 691.795 811.206L691.696 811.107C691.337 810.609 690.919 810.33 690.462 810.27C690.004 810.21 689.566 810.449 689.168 810.947C688.81 811.266 688.512 811.664 688.273 812.102C688.034 812.54 687.815 813.058 687.596 813.636V828.75C687.596 830.204 688.233 831.1 689.487 831.458L691.218 831.956V832.494H677.209L677.17 832.474Z" fill="#F5BC00"/>
<path d="M709.842 833.29C708.072 833.29 706.48 833.091 705.087 832.672C703.674 832.254 702.38 831.737 701.187 831.139L701.246 824.687H701.783L703.614 827.933C704.41 829.387 705.286 830.442 706.241 831.159C707.196 831.876 708.41 832.214 709.882 832.214C711.613 832.214 713.006 831.836 714.081 831.059C715.135 830.283 715.673 829.247 715.673 827.953C715.673 826.758 715.295 825.782 714.539 825.026C713.782 824.269 712.37 823.592 710.32 822.975L708.052 822.278C705.843 821.62 704.112 820.625 702.858 819.251C701.604 817.877 700.968 816.204 700.968 814.213C700.968 811.823 701.903 809.812 703.773 808.139C705.644 806.486 708.33 805.65 711.832 805.65C713.245 805.65 714.558 805.809 715.812 806.108C717.046 806.407 718.26 806.884 719.414 807.482L719.095 813.336H718.558L716.668 809.971C715.991 808.776 715.315 807.94 714.638 807.462C713.981 806.984 712.967 806.725 711.633 806.725C710.4 806.725 709.246 807.064 708.171 807.761C707.096 808.438 706.539 809.413 706.539 810.688C706.539 811.962 706.997 812.898 707.912 813.615C708.828 814.332 710.201 815.009 711.992 815.627L714.419 816.323C717.006 817.12 718.876 818.215 719.991 819.609C721.105 821.003 721.662 822.676 721.662 824.607C721.662 827.236 720.627 829.347 718.558 830.94C716.489 832.533 713.564 833.33 709.823 833.33L709.842 833.29Z" fill="#F5BC00"/>
<path d="M734.358 833.29C732.05 833.29 730.259 832.712 728.966 831.557C727.672 830.402 727.056 828.57 727.056 826.041V807.522H723.315V806.984L724.608 806.765C725.722 806.506 726.697 806.148 727.513 805.69C728.329 805.212 729.125 804.594 729.921 803.798L734.358 798.879H734.896L734.736 806.466H740.786V807.542H734.677V827.037C734.677 828.292 734.955 829.267 735.512 829.905C736.07 830.542 736.786 830.88 737.642 830.88C738.398 830.88 739.074 830.681 739.651 830.303C740.228 829.924 740.805 829.407 741.383 828.769L741.92 829.307C741.203 830.542 740.209 831.518 738.935 832.234C737.662 832.951 736.149 833.31 734.338 833.31L734.358 833.29Z" fill="#F5BC00"/>
<path d="M174.431 817.24H10.1077V819.231H174.431V817.24Z" fill="#F5BC00"/>
<path d="M945.565 817.24H781.242V819.231H945.565V817.24Z" fill="#F5BC00"/>
<path d="M332.426 911.789V911.251L333.5 910.873C334.217 910.654 334.694 910.335 334.933 909.897C335.172 909.459 335.291 908.882 335.291 908.165V879.788C335.291 879.071 335.172 878.494 334.913 878.056C334.655 877.618 334.177 877.279 333.461 877.02L332.426 876.582V876.044H345.579C350.952 876.044 354.832 877.02 357.24 878.992C359.647 880.963 360.841 883.552 360.841 886.758C360.841 888.809 360.344 890.701 359.349 892.413C358.354 894.126 356.722 895.48 354.454 896.496C352.185 897.511 349.121 898.009 345.261 898.009H343.43V907.966C343.43 909.38 344.126 910.296 345.539 910.734L347.171 911.232V911.769H332.446L332.426 911.789ZM343.41 896.954H345.46C347.231 896.954 348.663 896.675 349.778 896.097C350.892 895.52 351.728 894.504 352.265 893.07C352.802 891.637 353.081 889.625 353.081 887.057C353.081 884.488 352.782 882.437 352.185 881.003C351.588 879.569 350.713 878.553 349.559 877.996C348.405 877.438 346.972 877.16 345.241 877.16H343.41V896.973V896.954Z" fill="white"/>
<path d="M391.088 912.765C388.879 912.765 386.77 912.366 384.741 911.57C382.711 910.773 380.88 909.598 379.268 908.025C377.657 906.452 376.383 904.501 375.448 902.151C374.513 899.801 374.035 897.053 374.035 893.927C374.035 890.8 374.513 888.092 375.448 885.742C376.383 883.392 377.657 881.441 379.288 879.868C380.92 878.294 382.751 877.1 384.78 876.303C386.81 875.487 388.919 875.088 391.088 875.088C393.257 875.088 395.406 875.467 397.436 876.243C399.466 877.02 401.296 878.195 402.908 879.768C404.52 881.341 405.793 883.313 406.729 885.662C407.664 888.032 408.141 890.78 408.141 893.927C408.141 897.073 407.664 899.721 406.729 902.071C405.793 904.441 404.52 906.412 402.908 907.966C401.296 909.539 399.485 910.734 397.436 911.53C395.406 912.347 393.277 912.745 391.088 912.745V912.765ZM391.088 911.63C393.078 911.63 394.67 911.092 395.904 910.037C397.137 908.981 398.013 907.149 398.59 904.56C399.147 901.972 399.426 898.427 399.426 893.927C399.426 889.426 399.147 885.822 398.59 883.233C398.033 880.644 397.137 878.832 395.904 877.757C394.67 876.681 393.078 876.164 391.088 876.164C389.098 876.164 387.546 876.701 386.332 877.757C385.099 878.812 384.203 880.644 383.646 883.233C383.089 885.822 382.81 889.386 382.81 893.927C382.81 898.467 383.089 901.992 383.646 904.56C384.203 907.149 385.099 908.961 386.332 910.037C387.566 911.112 389.138 911.63 391.088 911.63Z" fill="white"/>
<path d="M420.299 911.789V911.251L421.433 910.813C422.588 910.335 423.165 909.419 423.165 908.045V879.788C423.165 878.354 422.588 877.418 421.433 877.02L420.299 876.582V876.044H434.586C438.407 876.044 441.71 876.761 444.456 878.175C447.222 879.609 449.351 881.64 450.844 884.289C452.336 886.937 453.092 890.123 453.092 893.847C453.092 897.571 452.276 900.877 450.665 903.545C449.033 906.213 446.784 908.264 443.879 909.658C440.974 911.072 437.551 911.769 433.631 911.769H420.319L420.299 911.789ZM431.283 910.714H433.611C436.218 910.714 438.308 910.196 439.88 909.18C441.471 908.145 442.626 906.413 443.362 903.983C444.098 901.554 444.476 898.208 444.476 893.947C444.476 889.685 444.098 886.34 443.362 883.91C442.626 881.481 441.471 879.748 439.919 878.713C438.367 877.677 436.338 877.16 433.81 877.16H431.263V910.734L431.283 910.714Z" fill="white"/>
<path d="M485.645 912.765C482.143 912.765 478.979 912.048 476.154 910.635C473.328 909.201 471.079 907.09 469.408 904.282C467.756 901.474 466.921 898.029 466.921 893.947C466.921 890.841 467.418 888.112 468.433 885.763C469.448 883.413 470.821 881.441 472.572 879.868C474.323 878.275 476.333 877.08 478.621 876.304C480.909 875.507 483.337 875.109 485.904 875.109C487.954 875.109 489.864 875.348 491.595 875.806C493.326 876.284 494.958 876.921 496.47 877.757L496.689 884.408H496.152L493.446 880.087C493.087 879.41 492.689 878.773 492.252 878.215C491.814 877.658 491.277 877.24 490.62 876.941C490.083 876.682 489.545 876.503 489.028 876.363C488.511 876.224 487.854 876.164 487.058 876.164C484.969 876.164 483.058 876.722 481.347 877.837C479.636 878.952 478.263 880.804 477.228 883.393C476.193 885.982 475.696 889.506 475.696 893.987C475.696 898.467 476.174 901.932 477.149 904.521C478.124 907.11 479.457 908.942 481.128 910.037C482.8 911.132 484.69 911.69 486.78 911.69C487.934 911.69 488.849 911.61 489.545 911.451C490.222 911.292 490.918 911.053 491.595 910.714C492.272 910.435 492.809 909.997 493.167 909.44C493.525 908.882 493.844 908.285 494.142 907.628L496.53 902.331H497.067L496.908 910.077C495.396 910.874 493.704 911.531 491.814 912.029C489.943 912.526 487.874 912.785 485.645 912.785V912.765Z" fill="white"/>
<path d="M509.405 911.789V911.251L510.758 910.754C511.474 910.475 512.032 910.116 512.43 909.698C512.828 909.28 513.146 908.703 513.405 907.946L524.548 875.945H529.145L540.129 908.165C540.407 908.961 540.745 909.559 541.104 909.977C541.462 910.395 542.019 910.754 542.775 911.032L543.432 911.251V911.789H529.682V911.251L530.498 910.973C531.254 910.694 531.711 910.276 531.871 909.758C532.03 909.24 532.01 908.603 531.791 907.886L529.244 900.08H517.225L514.638 907.707C514.38 908.503 514.3 909.141 514.4 909.599C514.479 910.077 514.917 910.455 515.673 910.734L516.867 911.232V911.769H509.405V911.789ZM517.623 899.005H528.926L523.453 882.158L517.603 899.005H517.623Z" fill="white"/>
<path d="M567.767 912.765C565.778 912.765 563.768 912.526 561.698 912.029C559.649 911.551 557.938 910.893 556.564 910.117L556.843 902.749H557.38L559.052 906.273C559.549 907.289 560.106 908.185 560.683 908.962C561.261 909.738 562.056 910.336 563.071 910.774C563.788 911.132 564.484 911.371 565.161 911.511C565.837 911.63 566.573 911.69 567.409 911.69C569.618 911.69 571.349 911.093 572.623 909.898C573.896 908.703 574.553 907.17 574.553 905.298C574.553 903.525 574.115 902.151 573.259 901.156C572.384 900.16 571.011 899.204 569.101 898.268L566.872 897.292C563.768 895.918 561.34 894.345 559.589 892.553C557.838 890.761 556.962 888.391 556.962 885.424C556.962 883.293 557.52 881.461 558.614 879.908C559.708 878.355 561.241 877.16 563.211 876.343C565.181 875.507 567.469 875.109 570.115 875.109C572.026 875.109 573.836 875.368 575.548 875.866C577.259 876.363 578.751 877.06 580.005 877.917L579.687 884.408H579.149L576.941 880.346C576.324 879.092 575.707 878.195 575.11 877.658C574.513 877.12 573.797 876.762 573.001 876.543C572.523 876.403 572.105 876.304 571.707 876.244C571.309 876.184 570.812 876.164 570.195 876.164C568.364 876.164 566.812 876.702 565.539 877.757C564.285 878.813 563.648 880.247 563.648 882.059C563.648 883.871 564.126 885.364 565.101 886.479C566.076 887.575 567.509 888.57 569.379 889.427L571.867 890.502C575.329 892.015 577.816 893.628 579.329 895.341C580.841 897.054 581.597 899.264 581.597 901.972C581.597 905.138 580.403 907.747 577.995 909.738C575.588 911.75 572.205 912.745 567.807 912.745L567.767 912.765Z" fill="white"/>
<path d="M601.536 911.79V911.252L603.745 910.714C605.218 910.396 605.974 909.48 605.974 908.006V877.14H601.377C600.044 877.14 599.089 877.499 598.512 878.196C597.935 878.893 597.318 879.868 596.681 881.103L594.731 884.887H594.194L594.472 876.065H625.693L625.912 884.887H625.375L623.425 881.103C622.808 879.868 622.211 878.913 621.634 878.196C621.057 877.499 620.102 877.14 618.768 877.14H614.172V908.006C614.172 909.48 614.908 910.396 616.381 910.714L618.609 911.252V911.79H601.576H601.536Z" fill="white"/>
</svg>
